<?xml version="1.0" standalone="no"?>
<!DOCTYPE svg PUBLIC "-//W3C//DTD SVG 20010904//EN"
 "http://www.w3.org/TR/2001/REC-SVG-20010904/DTD/svg10.dtd">
<svg version="1.0" xmlns="http://www.w3.org/2000/svg"
 width="260.000000pt" height="260.000000pt" viewBox="0 0 260.000000 260.000000"
 preserveAspectRatio="xMidYMid meet">
<metadata>
Created by potrace 1.11, written by Peter Selinger 2001-2013
</metadata>
<g transform="translate(0.000000,260.000000) scale(0.100000,-0.100000)"
fill="#000000" stroke="none">
<path d="M1185 2563 c-410 -46 -763 -269 -972 -613 -76 -126 -126 -254 -159
-408 -19 -90 -27 -328 -13 -417 12 -79 56 -249 75 -294 109 -253 259 -441 469
-587 297 -208 712 -276 1060 -174 39 11 78 22 87 25 69 16 308 152 378 214
127 114 203 200 272 311 75 121 149 301 163 396 3 22 8 46 11 54 17 49 23 252
12 370 -7 72 -36 210 -48 225 -4 6 -10 25 -14 44 -10 56 -113 251 -175 334
-76 103 -156 183 -257 263 -46 35 -85 64 -88 64 -3 0 -27 13 -53 29 -108 66
-317 139 -450 156 -56 8 -254 12 -298 8z"/>
</g>
</svg>
